# xmcd
#
# Track frame offsets:
#	225
#	16632
#	31528
#	48693
#	63504
#	78836
#	97458
#	115146
#	127190
#	148506
#	171893
#	182692
#	194568
#
# Disc length: 2856 seconds
#
# Revision: 1
# Processed by: cddbd v1.4b41PL1 Copyright (c) Steve Scherf et al.
# Submitted via: audiograbber 1.80
#
DISCID=b40b250d
DTITLE=Johnny Childs  - The Truth
DYEAR=1900
DGENRE=
TTITLE0=You Know It Ain't right
TTITLE1=Thumb's Boogie
TTITLE2=Come Back Easy
TTITLE3=She Moves Me
TTITLE4=Fattening Frogs For Snakes
TTITLE5=Blue Over You
TTITLE6=This Love
TTITLE7=Leftovers
TTITLE8=Find My Baby
TTITLE9=After Hours
TTITLE10=Mellow Down Easy
TTITLE11=Brave Your Evil
TTITLE12=See The Light
EXTD=
EXTT0=
EXTT1=
EXTT2=
EXTT3=
EXTT4=
EXTT5=
EXTT6=
EXTT7=
EXTT8=
EXTT9=
EXTT10=
EXTT11=
EXTT12=
PLAYORDER=
